<svg
	aria-label="A Wish For"
	fill="none"
	height="660"
	role="img"
	viewBox="0 0 916 660"
	width="916"
	xmlns="http://www.w3.org/2000/svg"
>
	<title>A Wish For</title>
	<path
		d="M116.808 349C133.929 349 147.808 335.121 147.808 318C147.808 300.879 133.929 287 116.808 287C99.6872 287 85.808 300.879 85.808 318C85.808 335.121 99.6872 349 116.808 349Z"
		fill="#AFF33E"
		opacity="0.82"
	/>
	<path
		d="M796.808 306C820.004 306 838.808 287.196 838.808 264C838.808 240.804 820.004 222 796.808 222C773.612 222 754.808 240.804 754.808 264C754.808 287.196 773.612 306 796.808 306Z"
		fill="#AFF33E"
		opacity="0.82"
	/>
	<path
		d="M453.808 660C636.062 660 783.808 512.254 783.808 330C783.808 147.746 636.062 0 453.808 0C271.554 0 123.808 147.746 123.808 330C123.808 512.254 271.554 660 453.808 660Z"
		fill="#EEF4E8"
		fill-opacity="0.7"
	/>
	<path
		d="M581.928 290.24C583.651 290.24 585.048 288.843 585.048 287.12C585.048 285.397 583.651 284 581.928 284C580.205 284 578.808 285.397 578.808 287.12C578.808 288.843 580.205 290.24 581.928 290.24Z"
		fill="#AFF33E"
		opacity="0.62"
	/>
	<path
		d="M256.928 284.24C258.651 284.24 260.048 282.843 260.048 281.12C260.048 279.397 258.651 278 256.928 278C255.205 278 253.808 279.397 253.808 281.12C253.808 282.843 255.205 284.24 256.928 284.24Z"
		fill="#AFF33E"
		opacity="0.62"
	/>
	<path
		d="M19.528 297.24C103.768 297.24 169.288 297.24 241.048 293.34C267.568 291.78 282.388 284.76 293.308 272.28C304.228 259.8 321.388 262.14 323.728 276.96C326.068 291.78 300.328 300.36 290.188 287.1C278.488 272.28 298.768 256.68 325.288 276.96C344.008 291.78 355.708 291.78 368.188 281.64C379.108 272.28 386.128 295.68 397.048 295.68C409.528 295.68 413.428 271.5 425.128 276.18C437.608 280.86 439.948 301.14 453.988 297.24C471.148 292.56 475.048 260.58 494.548 270.72C515.608 280.86 499.228 333.12 493.768 367.44C489.868 393.96 473.488 392.4 478.168 358.86C485.968 301.92 522.628 226.26 570.208 198.18C607.648 176.34 634.168 190.38 620.128 220.8C600.628 265.26 548.368 297.24 508.588 297.24C640.408 298.02 739.468 293.34 859.588 289.44"
		stroke="#143B32"
		stroke-linecap="round"
		stroke-linejoin="round"
		stroke-width="5.616"
	/>
	<path
		d="M912.808 271.596C912.808 243 874.077 234.83 859.808 265.468C845.539 234.83 806.808 243 806.808 271.596C806.808 312.447 859.808 339 859.808 339C859.808 339 912.808 312.447 912.808 271.596Z"
		stroke="#D6A596"
		stroke-linecap="round"
		stroke-linejoin="round"
		stroke-width="5.616"
	/>
	<path
		d="M32.808 278.156C32.808 270.161 21.8464 267.877 17.808 276.443C13.7695 267.877 2.80798 270.161 2.80798 278.156C2.80798 289.577 17.808 297 17.808 297C17.808 297 32.808 289.577 32.808 278.156Z"
		stroke="#D6A596"
		stroke-linecap="round"
		stroke-linejoin="round"
		stroke-width="5.616"
	/>
	<path
		d="M350.928 278.24C352.651 278.24 354.048 276.843 354.048 275.12C354.048 273.397 352.651 272 350.928 272C349.205 272 347.808 273.397 347.808 275.12C347.808 276.843 349.205 278.24 350.928 278.24Z"
		fill="#AFF33E"
		opacity="0.62"
	/>
	<path
		d="M501.928 265.24C503.651 265.24 505.048 263.843 505.048 262.12C505.048 260.397 503.651 259 501.928 259C500.205 259 498.808 260.397 498.808 262.12C498.808 263.843 500.205 265.24 501.928 265.24Z"
		fill="#AFF33E"
		opacity="0.62"
	/>
	<path
		d="M246.617 492L281.497 415.7H289.454L324.334 492H315.832L283.786 420.387H287.056L255.01 492H246.617ZM260.351 471.617L262.749 465.077H307.112L309.51 471.617H260.351ZM382.814 492L357.09 415.7H365.374L389.463 487.531H385.321L410.174 415.7H417.585L442.11 487.531H438.186L462.494 415.7H470.233L444.509 492H436.006L412.571 423.875H414.751L391.207 492H382.814ZM485.022 492V415.7H493.088V492H485.022ZM538.95 492.654C533.282 492.654 527.832 491.746 522.6 489.929C517.441 488.04 513.444 485.642 510.61 482.735L513.771 476.522C516.46 479.138 520.057 481.354 524.562 483.171C529.14 484.915 533.936 485.787 538.95 485.787C543.746 485.787 547.634 485.206 550.613 484.043C553.665 482.808 555.882 481.173 557.262 479.138C558.716 477.103 559.442 474.851 559.442 472.38C559.442 469.401 558.57 467.003 556.826 465.186C555.155 463.369 552.939 461.952 550.177 460.935C547.416 459.845 544.364 458.9 541.021 458.101C537.679 457.302 534.336 456.466 530.993 455.594C527.651 454.649 524.562 453.414 521.728 451.888C518.967 450.362 516.714 448.364 514.97 445.893C513.299 443.35 512.463 440.043 512.463 435.974C512.463 432.195 513.444 428.744 515.406 425.619C517.441 422.422 520.529 419.878 524.671 417.989C528.813 416.027 534.118 415.046 540.585 415.046C544.873 415.046 549.124 415.664 553.338 416.899C557.553 418.062 561.186 419.697 564.238 421.804L561.513 428.235C558.243 426.055 554.755 424.456 551.049 423.439C547.416 422.422 543.892 421.913 540.476 421.913C535.898 421.913 532.12 422.531 529.14 423.766C526.161 425.001 523.945 426.673 522.491 428.78C521.111 430.815 520.42 433.14 520.42 435.756C520.42 438.735 521.256 441.133 522.927 442.95C524.671 444.767 526.924 446.184 529.685 447.201C532.519 448.218 535.608 449.127 538.95 449.926C542.293 450.725 545.599 451.597 548.869 452.542C552.212 453.487 555.264 454.722 558.025 456.248C560.859 457.701 563.112 459.663 564.783 462.134C566.527 464.605 567.399 467.838 567.399 471.835C567.399 475.541 566.382 478.993 564.347 482.19C562.313 485.315 559.188 487.858 554.973 489.82C550.831 491.709 545.49 492.654 538.95 492.654ZM640.782 492V415.7H648.739V492H640.782ZM584.974 492V415.7H593.04V492H584.974ZM592.168 456.793V449.708H641.545V456.793H592.168ZM347.122 625V548.7H399.442V555.676H355.188V625H347.122ZM354.316 592.627V585.651H394.646V592.627H354.316ZM448.494 625.654C442.754 625.654 437.413 624.709 432.471 622.82C427.603 620.858 423.352 618.133 419.718 614.645C416.158 611.084 413.36 606.979 411.325 602.328C409.363 597.605 408.382 592.445 408.382 586.85C408.382 581.255 409.363 576.132 411.325 571.481C413.36 566.758 416.158 562.652 419.718 559.164C423.352 555.603 427.603 552.878 432.471 550.989C437.34 549.027 442.681 548.046 448.494 548.046C454.235 548.046 459.54 549.027 464.408 550.989C469.277 552.878 473.492 555.567 477.052 559.055C480.686 562.543 483.483 566.649 485.445 571.372C487.48 576.095 488.497 581.255 488.497 586.85C488.497 592.445 487.48 597.605 485.445 602.328C483.483 607.051 480.686 611.157 477.052 614.645C473.492 618.133 469.277 620.858 464.408 622.82C459.54 624.709 454.235 625.654 448.494 625.654ZM448.494 618.46C453.072 618.46 457.287 617.697 461.138 616.171C465.062 614.572 468.441 612.356 471.275 609.522C474.182 606.615 476.435 603.273 478.033 599.494C479.632 595.643 480.431 591.428 480.431 586.85C480.431 582.272 479.632 578.094 478.033 574.315C476.435 570.464 474.182 567.121 471.275 564.287C468.441 561.38 465.062 559.164 461.138 557.638C457.287 556.039 453.072 555.24 448.494 555.24C443.916 555.24 439.665 556.039 435.741 557.638C431.817 559.164 428.402 561.38 425.495 564.287C422.661 567.121 420.409 570.464 418.737 574.315C417.139 578.094 416.339 582.272 416.339 586.85C416.339 591.355 417.139 595.534 418.737 599.385C420.409 603.236 422.661 606.615 425.495 609.522C428.402 612.356 431.817 614.572 435.741 616.171C439.665 617.697 443.916 618.46 448.494 618.46ZM506.577 625V548.7H535.135C544.799 548.7 552.393 551.025 557.916 555.676C563.511 560.254 566.309 566.649 566.309 574.86C566.309 580.237 565.037 584.888 562.494 588.812C560.023 592.663 556.462 595.643 551.812 597.75C547.161 599.785 541.602 600.802 535.135 600.802H511.046L514.643 597.096V625H506.577ZM558.679 625L539.059 597.314H547.779L567.508 625H558.679ZM514.643 597.75L511.046 593.935H534.917C542.547 593.935 548.324 592.264 552.248 588.921C556.244 585.578 558.243 580.891 558.243 574.86C558.243 568.756 556.244 564.033 552.248 560.69C548.324 557.347 542.547 555.676 534.917 555.676H511.046L514.643 551.861V597.75Z"
		fill="#143B32"
	/>
</svg>
