<svg
	fill="none"
	height="1024"
	viewBox="0 0 1024 1024"
	width="1024"
	xmlns="http://www.w3.org/2000/svg"
>
	<title>A Wish For</title>
	<g clip-path="url(#clip0_1_2)">
		<path
			d="M512 997C779.858 997 997 779.858 997 512C997 244.142 779.858 27 512 27C244.142 27 27 244.142 27 512C27 779.858 244.142 997 512 997Z"
			fill="#EEF4E8"
			fill-opacity="0.7"
		/>
		<path
			d="M-520 704.377C-313.025 704.377 -152.045 704.377 24.2674 694.797C89.4262 690.965 125.838 673.721 152.669 643.065C179.499 612.409 221.66 618.157 227.409 654.561C233.159 690.965 169.916 712.041 145.003 679.469C116.256 643.065 166.084 604.745 231.242 654.561C277.237 690.965 305.983 690.965 336.646 666.057C363.476 643.065 380.724 700.545 407.554 700.545C438.217 700.545 447.799 641.149 476.546 652.645C507.209 664.141 512.958 713.957 547.454 704.377C589.616 692.881 599.198 614.325 647.109 639.233C698.852 664.141 658.607 792.514 645.192 876.818C635.61 941.963 595.365 938.131 606.864 855.742C626.028 715.873 716.1 530.02 833.003 461.044C924.992 407.396 990.15 441.884 955.655 516.608C907.744 625.821 779.343 704.377 681.604 704.377C1005.48 706.293 1248.87 694.797 1544 685.217"
			stroke="#143B32"
			stroke-linecap="round"
			stroke-linejoin="round"
			stroke-width="5.616"
		/>
		<path
			d="M879.625 664.251C883.284 664.251 886.251 661.284 886.251 657.625C886.251 653.966 883.284 651 879.625 651C875.966 651 873 653.966 873 657.625C873 661.284 875.966 664.251 879.625 664.251Z"
			fill="#AFF33E"
			opacity="0.62"
		/>
		<path
			d="M98.6254 664.251C102.284 664.251 105.251 661.284 105.251 657.625C105.251 653.966 102.284 651 98.6254 651C94.9663 651 92 653.966 92 657.625C92 661.284 94.9663 664.251 98.6254 664.251Z"
			fill="#AFF33E"
			opacity="0.62"
		/>
		<path
			d="M289.625 664.251C293.284 664.251 296.251 661.284 296.251 657.625C296.251 653.966 293.284 651 289.625 651C285.966 651 283 653.966 283 657.625C283 661.284 285.966 664.251 289.625 664.251Z"
			fill="#AFF33E"
			opacity="0.62"
		/>
		<path
			d="M661.625 632.251C665.284 632.251 668.251 629.284 668.251 625.625C668.251 621.966 665.284 619 661.625 619C657.966 619 655 621.966 655 625.625C655 629.284 657.966 632.251 661.625 632.251Z"
			fill="#AFF33E"
			opacity="0.62"
		/>
		<path
			d="M128 459C147.882 459 164 442.882 164 423C164 403.118 147.882 387 128 387C108.118 387 92 403.118 92 423C92 442.882 108.118 459 128 459Z"
			fill="#AFF33E"
			opacity="0.82"
		/>
		<path
			d="M753 834C781.167 834 804 811.167 804 783C804 754.833 781.167 732 753 732C724.833 732 702 754.833 702 783C702 811.167 724.833 834 753 834Z"
			fill="#AFF33E"
			opacity="0.82"
		/>
		<path
			d="M271.72 166.769C273.856 135.676 301.113 112.226 332.603 114.389L712.709 140.501C744.199 142.664 767.994 169.621 765.858 200.714L763.537 234.492L269.399 200.547L271.72 166.769Z"
			fill="#E9EEE3"
			stroke="#173B36"
			stroke-linejoin="round"
			stroke-width="12"
		/>
		<path
			d="M315.012 203.68L717.925 231.359L701.682 467.804C698.834 509.259 662.489 540.528 620.504 537.644L369.634 520.411C327.649 517.526 295.921 481.581 298.769 440.126L315.012 203.68Z"
			fill="#DDE7D8"
			stroke="#173B36"
			stroke-linejoin="round"
			stroke-width="12"
		/>
		<path
			d="M522.656 127.445L495.069 529.027"
			stroke="#6B8F7A"
			stroke-linecap="round"
			stroke-width="14"
		/>
		<path
			d="M269.399 200.547L763.537 234.492"
			stroke="#173B36"
			stroke-linecap="round"
			stroke-width="12"
		/>
		<path
			d="M522.656 127.445C493.99 44.4028 422.834 -3.84965 372.485 34.1706C318.076 75.6828 374.768 139.91 522.656 127.445Z"
			fill="#FBFCF8"
			stroke="#173B36"
			stroke-linecap="round"
			stroke-linejoin="round"
			stroke-width="12"
		/>
		<path
			d="M522.656 127.445C562.409 49.1031 639.495 11.0341 684.172 55.5822C732.392 104.145 667.45 160.016 522.656 127.445Z"
			fill="#FBFCF8"
			stroke="#173B36"
			stroke-linecap="round"
			stroke-linejoin="round"
			stroke-width="12"
		/>
		<path
			d="M522.656 127.445C509.128 102.005 511.061 73.8569 527.555 56.1358C541.47 75.9458 539.536 104.094 522.656 127.445Z"
			fill="#6B8F7A"
		/>
		<path
			d="M522.656 127.445C516.085 111.91 516.859 100.651 525.234 89.9137C532.063 101.695 531.289 112.955 522.656 127.445Z"
			fill="#173B36"
		/>
		<path
			d="M505.382 378.903C506.993 355.446 479.323 341.29 460.801 360.757C445.114 338.94 415.768 349.179 414.157 372.636C411.965 404.538 455.902 432.066 455.902 432.066C455.902 432.066 503.191 410.804 505.382 378.903Z"
			fill="#F2B9B3"
		/>
	</g>
	<defs>
		<clipPath id="clip0_1_2">
			<rect fill="white" height="1024" width="1024" />
		</clipPath>
	</defs>
</svg>
